<mxfile host="Electron" modified="2023-12-29T14:57:57.849Z" agent="Mozilla/5.0 (Windows NT 10.0; Win64; x64) AppleWebKit/537.36 (KHTML, like Gecko) draw.io/22.1.15 Chrome/120.0.6099.109 Electron/28.1.0 Safari/537.36" etag="ZlvglFVPghP65RwjUqWT" version="22.1.15" type="device">
  <diagram name="Page-1" id="HfxqfDOjrJKGUBvr3fUv">
    <mxGraphModel dx="1036" dy="606" grid="0" gridSize="10" guides="1" tooltips="1" connect="1" arrows="1" fold="1" page="1" pageScale="1" pageWidth="850" pageHeight="1100" math="0" shadow="0">
      <root>
        <mxCell id="0" />
        <mxCell id="1" parent="0" />
        <mxCell id="OuGInldzBYDRyF8YYTj3-1" value="" style="group" vertex="1" connectable="0" parent="1">
          <mxGeometry x="350" y="270" width="190" height="120" as="geometry" />
        </mxCell>
        <mxCell id="OuGInldzBYDRyF8YYTj3-2" value="&lt;p style=&quot;margin:0px;margin-top:6px;text-align:center;&quot;&gt;&lt;b&gt;DBMS&lt;/b&gt;&lt;/p&gt;" style="align=left;overflow=fill;html=1;dropTarget=0;whiteSpace=wrap;" vertex="1" parent="OuGInldzBYDRyF8YYTj3-1">
          <mxGeometry x="9" y="26" width="148" height="49" as="geometry" />
        </mxCell>
        <mxCell id="OuGInldzBYDRyF8YYTj3-3" value="" style="shape=component;jettyWidth=8;jettyHeight=4;" vertex="1" parent="OuGInldzBYDRyF8YYTj3-2">
          <mxGeometry x="1" width="20" height="20" relative="1" as="geometry">
            <mxPoint x="-24" y="4" as="offset" />
          </mxGeometry>
        </mxCell>
        <mxCell id="OuGInldzBYDRyF8YYTj3-6" value="" style="group" vertex="1" connectable="0" parent="1">
          <mxGeometry x="121" y="80" width="200" height="127" as="geometry" />
        </mxCell>
        <mxCell id="OuGInldzBYDRyF8YYTj3-7" value="&lt;p style=&quot;margin:0px;margin-top:6px;text-align:center;&quot;&gt;&lt;b&gt;Notification Microservice&lt;/b&gt;&lt;/p&gt;" style="align=left;overflow=fill;html=1;dropTarget=0;whiteSpace=wrap;" vertex="1" parent="OuGInldzBYDRyF8YYTj3-6">
          <mxGeometry width="200" height="120" as="geometry" />
        </mxCell>
        <mxCell id="OuGInldzBYDRyF8YYTj3-8" value="" style="shape=component;jettyWidth=8;jettyHeight=4;" vertex="1" parent="OuGInldzBYDRyF8YYTj3-7">
          <mxGeometry x="1" width="20" height="20" relative="1" as="geometry">
            <mxPoint x="-24" y="4" as="offset" />
          </mxGeometry>
        </mxCell>
        <mxCell id="OuGInldzBYDRyF8YYTj3-9" value="&lt;p style=&quot;margin:0px;margin-top:6px;text-align:center;&quot;&gt;&lt;b&gt;Notification Manager&lt;/b&gt;&lt;/p&gt;" style="align=left;overflow=fill;html=1;dropTarget=0;whiteSpace=wrap;" vertex="1" parent="OuGInldzBYDRyF8YYTj3-6">
          <mxGeometry x="10" y="44.44" width="180" height="44.44" as="geometry" />
        </mxCell>
        <mxCell id="OuGInldzBYDRyF8YYTj3-10" value="" style="shape=component;jettyWidth=8;jettyHeight=4;" vertex="1" parent="OuGInldzBYDRyF8YYTj3-9">
          <mxGeometry x="1" width="20" height="20" relative="1" as="geometry">
            <mxPoint x="-24" y="4" as="offset" />
          </mxGeometry>
        </mxCell>
        <mxCell id="OuGInldzBYDRyF8YYTj3-11" value="" style="whiteSpace=wrap;html=1;aspect=fixed;" vertex="1" parent="OuGInldzBYDRyF8YYTj3-6">
          <mxGeometry x="136" y="114" width="13" height="13" as="geometry" />
        </mxCell>
        <mxCell id="OuGInldzBYDRyF8YYTj3-15" value="" style="endArrow=none;html=1;rounded=0;exitX=0.5;exitY=0;exitDx=0;exitDy=0;" edge="1" parent="1" source="OuGInldzBYDRyF8YYTj3-11">
          <mxGeometry width="50" height="50" relative="1" as="geometry">
            <mxPoint x="263" y="173" as="sourcePoint" />
            <mxPoint x="263" y="168" as="targetPoint" />
          </mxGeometry>
        </mxCell>
        <mxCell id="OuGInldzBYDRyF8YYTj3-18" value="" style="group" vertex="1" connectable="0" parent="1">
          <mxGeometry x="412" y="64" width="200" height="127" as="geometry" />
        </mxCell>
        <mxCell id="OuGInldzBYDRyF8YYTj3-19" value="&lt;p style=&quot;margin:0px;margin-top:6px;text-align:center;&quot;&gt;&lt;b&gt;Tournament Microservice&lt;/b&gt;&lt;/p&gt;" style="align=left;overflow=fill;html=1;dropTarget=0;whiteSpace=wrap;" vertex="1" parent="OuGInldzBYDRyF8YYTj3-18">
          <mxGeometry width="200" height="120" as="geometry" />
        </mxCell>
        <mxCell id="OuGInldzBYDRyF8YYTj3-20" value="" style="shape=component;jettyWidth=8;jettyHeight=4;" vertex="1" parent="OuGInldzBYDRyF8YYTj3-19">
          <mxGeometry x="1" width="20" height="20" relative="1" as="geometry">
            <mxPoint x="-24" y="4" as="offset" />
          </mxGeometry>
        </mxCell>
        <mxCell id="OuGInldzBYDRyF8YYTj3-21" value="&lt;p style=&quot;margin:0px;margin-top:6px;text-align:center;&quot;&gt;&lt;b&gt;Tournament Manager&lt;/b&gt;&lt;/p&gt;" style="align=left;overflow=fill;html=1;dropTarget=0;whiteSpace=wrap;" vertex="1" parent="OuGInldzBYDRyF8YYTj3-18">
          <mxGeometry x="10" y="44.44" width="180" height="44.44" as="geometry" />
        </mxCell>
        <mxCell id="OuGInldzBYDRyF8YYTj3-22" value="" style="shape=component;jettyWidth=8;jettyHeight=4;" vertex="1" parent="OuGInldzBYDRyF8YYTj3-21">
          <mxGeometry x="1" width="20" height="20" relative="1" as="geometry">
            <mxPoint x="-24" y="4" as="offset" />
          </mxGeometry>
        </mxCell>
        <mxCell id="OuGInldzBYDRyF8YYTj3-25" value="" style="whiteSpace=wrap;html=1;aspect=fixed;" vertex="1" parent="OuGInldzBYDRyF8YYTj3-18">
          <mxGeometry x="-8" y="95" width="13" height="13" as="geometry" />
        </mxCell>
        <mxCell id="OuGInldzBYDRyF8YYTj3-26" value="" style="endArrow=none;html=1;rounded=0;exitX=1;exitY=0.5;exitDx=0;exitDy=0;entryX=0.734;entryY=0.989;entryDx=0;entryDy=0;entryPerimeter=0;" edge="1" parent="OuGInldzBYDRyF8YYTj3-18" source="OuGInldzBYDRyF8YYTj3-25">
          <mxGeometry width="50" height="50" relative="1" as="geometry">
            <mxPoint x="27.879999999999995" y="114" as="sourcePoint" />
            <mxPoint x="26.879999999999995" y="88" as="targetPoint" />
          </mxGeometry>
        </mxCell>
        <mxCell id="OuGInldzBYDRyF8YYTj3-28" value="" style="ellipse;whiteSpace=wrap;html=1;align=center;aspect=fixed;fillColor=none;strokeColor=none;resizable=0;perimeter=centerPerimeter;rotatable=0;allowArrows=0;points=[];outlineConnect=1;" vertex="1" parent="1">
          <mxGeometry x="606" y="213" width="10" height="10" as="geometry" />
        </mxCell>
        <mxCell id="OuGInldzBYDRyF8YYTj3-29" value="&lt;p style=&quot;margin:0px;margin-top:6px;text-align:center;&quot;&gt;&lt;b&gt;Battle Microservice&lt;/b&gt;&lt;/p&gt;" style="align=left;overflow=fill;html=1;dropTarget=0;whiteSpace=wrap;" vertex="1" parent="1">
          <mxGeometry x="169" y="432" width="200" height="120" as="geometry" />
        </mxCell>
        <mxCell id="OuGInldzBYDRyF8YYTj3-30" value="" style="shape=component;jettyWidth=8;jettyHeight=4;" vertex="1" parent="OuGInldzBYDRyF8YYTj3-29">
          <mxGeometry x="1" width="20" height="20" relative="1" as="geometry">
            <mxPoint x="-24" y="4" as="offset" />
          </mxGeometry>
        </mxCell>
        <mxCell id="OuGInldzBYDRyF8YYTj3-31" value="&lt;p style=&quot;margin:0px;margin-top:6px;text-align:center;&quot;&gt;&lt;b&gt;Battle Manager&lt;/b&gt;&lt;/p&gt;" style="align=left;overflow=fill;html=1;dropTarget=0;whiteSpace=wrap;" vertex="1" parent="1">
          <mxGeometry x="179" y="476.44" width="180" height="44.44" as="geometry" />
        </mxCell>
        <mxCell id="OuGInldzBYDRyF8YYTj3-32" value="" style="shape=component;jettyWidth=8;jettyHeight=4;" vertex="1" parent="OuGInldzBYDRyF8YYTj3-31">
          <mxGeometry x="1" width="20" height="20" relative="1" as="geometry">
            <mxPoint x="-24" y="4" as="offset" />
          </mxGeometry>
        </mxCell>
        <mxCell id="OuGInldzBYDRyF8YYTj3-34" value="" style="ellipse;whiteSpace=wrap;html=1;align=center;aspect=fixed;fillColor=none;strokeColor=none;resizable=0;perimeter=centerPerimeter;rotatable=0;allowArrows=0;points=[];outlineConnect=1;" vertex="1" parent="1">
          <mxGeometry x="279" y="400" width="10" height="10" as="geometry" />
        </mxCell>
        <mxCell id="OuGInldzBYDRyF8YYTj3-35" value="" style="endArrow=none;html=1;rounded=0;exitX=0.5;exitY=0;exitDx=0;exitDy=0;entryX=0.892;entryY=0.036;entryDx=0;entryDy=0;entryPerimeter=0;" edge="1" parent="1" source="OuGInldzBYDRyF8YYTj3-47" target="OuGInldzBYDRyF8YYTj3-31">
          <mxGeometry width="50" height="50" relative="1" as="geometry">
            <mxPoint x="311" y="525" as="sourcePoint" />
            <mxPoint x="311" y="520" as="targetPoint" />
          </mxGeometry>
        </mxCell>
        <mxCell id="OuGInldzBYDRyF8YYTj3-46" value="" style="ellipse;whiteSpace=wrap;html=1;align=center;aspect=fixed;fillColor=none;strokeColor=none;resizable=0;perimeter=centerPerimeter;rotatable=0;allowArrows=0;points=[];outlineConnect=1;" vertex="1" parent="1">
          <mxGeometry x="557" y="355" width="10" height="10" as="geometry" />
        </mxCell>
        <mxCell id="OuGInldzBYDRyF8YYTj3-47" value="" style="whiteSpace=wrap;html=1;aspect=fixed;" vertex="1" parent="1">
          <mxGeometry x="331" y="424" width="13" height="13" as="geometry" />
        </mxCell>
        <mxCell id="OuGInldzBYDRyF8YYTj3-49" value="" style="ellipse;whiteSpace=wrap;html=1;align=center;aspect=fixed;fillColor=none;strokeColor=none;resizable=0;perimeter=centerPerimeter;rotatable=0;allowArrows=0;points=[];outlineConnect=1;" vertex="1" parent="1">
          <mxGeometry x="315" y="335" width="10" height="10" as="geometry" />
        </mxCell>
        <mxCell id="OuGInldzBYDRyF8YYTj3-51" value="" style="ellipse;whiteSpace=wrap;html=1;align=center;aspect=fixed;fillColor=none;strokeColor=none;resizable=0;perimeter=centerPerimeter;rotatable=0;allowArrows=0;points=[];outlineConnect=1;" vertex="1" parent="1">
          <mxGeometry x="536" y="272" width="10" height="10" as="geometry" />
        </mxCell>
        <mxCell id="OuGInldzBYDRyF8YYTj3-52" value="" style="group" vertex="1" connectable="0" parent="1">
          <mxGeometry x="52" y="265" width="209" height="127" as="geometry" />
        </mxCell>
        <mxCell id="OuGInldzBYDRyF8YYTj3-53" value="&lt;p style=&quot;margin:0px;margin-top:6px;text-align:center;&quot;&gt;&lt;b&gt;GitHub Integration&lt;/b&gt;&lt;/p&gt;&lt;p style=&quot;margin:0px;margin-top:6px;text-align:center;&quot;&gt;&lt;b&gt;Microservice&lt;/b&gt;&lt;/p&gt;" style="align=left;overflow=fill;html=1;dropTarget=0;whiteSpace=wrap;" vertex="1" parent="OuGInldzBYDRyF8YYTj3-52">
          <mxGeometry width="200" height="120" as="geometry" />
        </mxCell>
        <mxCell id="OuGInldzBYDRyF8YYTj3-54" value="" style="shape=component;jettyWidth=8;jettyHeight=4;" vertex="1" parent="OuGInldzBYDRyF8YYTj3-53">
          <mxGeometry x="1" width="20" height="20" relative="1" as="geometry">
            <mxPoint x="-24" y="4" as="offset" />
          </mxGeometry>
        </mxCell>
        <mxCell id="OuGInldzBYDRyF8YYTj3-55" value="&lt;p style=&quot;margin:0px;margin-top:6px;text-align:center;&quot;&gt;&lt;b&gt;GitHub Manager&lt;/b&gt;&lt;/p&gt;" style="align=left;overflow=fill;html=1;dropTarget=0;whiteSpace=wrap;" vertex="1" parent="OuGInldzBYDRyF8YYTj3-52">
          <mxGeometry x="10" y="54" width="180" height="44.44" as="geometry" />
        </mxCell>
        <mxCell id="OuGInldzBYDRyF8YYTj3-56" value="" style="shape=component;jettyWidth=8;jettyHeight=4;" vertex="1" parent="OuGInldzBYDRyF8YYTj3-55">
          <mxGeometry x="1" width="20" height="20" relative="1" as="geometry">
            <mxPoint x="-24" y="4" as="offset" />
          </mxGeometry>
        </mxCell>
        <mxCell id="OuGInldzBYDRyF8YYTj3-62" value="" style="whiteSpace=wrap;html=1;aspect=fixed;" vertex="1" parent="OuGInldzBYDRyF8YYTj3-52">
          <mxGeometry x="196" y="30" width="13" height="13" as="geometry" />
        </mxCell>
        <mxCell id="OuGInldzBYDRyF8YYTj3-61" value="" style="endArrow=none;html=1;rounded=0;exitX=0;exitY=0.5;exitDx=0;exitDy=0;entryX=0.829;entryY=0.005;entryDx=0;entryDy=0;entryPerimeter=0;" edge="1" parent="OuGInldzBYDRyF8YYTj3-52" source="OuGInldzBYDRyF8YYTj3-62" target="OuGInldzBYDRyF8YYTj3-55">
          <mxGeometry width="50" height="50" relative="1" as="geometry">
            <mxPoint x="142" y="93" as="sourcePoint" />
            <mxPoint x="142" y="88" as="targetPoint" />
          </mxGeometry>
        </mxCell>
        <mxCell id="OuGInldzBYDRyF8YYTj3-60" value="" style="ellipse;whiteSpace=wrap;html=1;align=center;aspect=fixed;fillColor=none;strokeColor=none;resizable=0;perimeter=centerPerimeter;rotatable=0;allowArrows=0;points=[];outlineConnect=1;" vertex="1" parent="1">
          <mxGeometry x="252" y="234" width="10" height="10" as="geometry" />
        </mxCell>
        <mxCell id="OuGInldzBYDRyF8YYTj3-64" value="" style="ellipse;whiteSpace=wrap;html=1;align=center;aspect=fixed;fillColor=none;strokeColor=none;resizable=0;perimeter=centerPerimeter;rotatable=0;allowArrows=0;points=[];outlineConnect=1;" vertex="1" parent="1">
          <mxGeometry x="224" y="207" width="10" height="10" as="geometry" />
        </mxCell>
        <mxCell id="OuGInldzBYDRyF8YYTj3-66" value="" style="ellipse;whiteSpace=wrap;html=1;align=center;aspect=fixed;fillColor=none;strokeColor=none;resizable=0;perimeter=centerPerimeter;rotatable=0;allowArrows=0;points=[];outlineConnect=1;" vertex="1" parent="1">
          <mxGeometry x="513" y="203" width="10" height="10" as="geometry" />
        </mxCell>
        <mxCell id="OuGInldzBYDRyF8YYTj3-67" value="" style="group" vertex="1" connectable="0" parent="1">
          <mxGeometry x="623" y="206" width="200.5" height="173" as="geometry" />
        </mxCell>
        <mxCell id="OuGInldzBYDRyF8YYTj3-68" value="&lt;p style=&quot;margin:0px;margin-top:6px;text-align:center;&quot;&gt;&lt;b&gt;User Management&lt;/b&gt;&lt;/p&gt;&lt;p style=&quot;margin:0px;margin-top:6px;text-align:center;&quot;&gt;&lt;b&gt;Microservice&lt;/b&gt;&lt;/p&gt;" style="align=left;overflow=fill;html=1;dropTarget=0;whiteSpace=wrap;" vertex="1" parent="OuGInldzBYDRyF8YYTj3-67">
          <mxGeometry x="-9" width="209.5" height="173" as="geometry" />
        </mxCell>
        <mxCell id="OuGInldzBYDRyF8YYTj3-69" value="" style="shape=component;jettyWidth=8;jettyHeight=4;" vertex="1" parent="OuGInldzBYDRyF8YYTj3-68">
          <mxGeometry x="1" width="20" height="20" relative="1" as="geometry">
            <mxPoint x="-24" y="4" as="offset" />
          </mxGeometry>
        </mxCell>
        <mxCell id="OuGInldzBYDRyF8YYTj3-70" value="&lt;p style=&quot;margin:0px;margin-top:6px;text-align:center;&quot;&gt;&lt;b&gt;Student Manager&lt;/b&gt;&lt;/p&gt;" style="align=left;overflow=fill;html=1;dropTarget=0;whiteSpace=wrap;" vertex="1" parent="OuGInldzBYDRyF8YYTj3-67">
          <mxGeometry x="16" y="52" width="169" height="44.44" as="geometry" />
        </mxCell>
        <mxCell id="OuGInldzBYDRyF8YYTj3-71" value="" style="shape=component;jettyWidth=8;jettyHeight=4;" vertex="1" parent="OuGInldzBYDRyF8YYTj3-70">
          <mxGeometry x="1" width="20" height="20" relative="1" as="geometry">
            <mxPoint x="-24" y="4" as="offset" />
          </mxGeometry>
        </mxCell>
        <mxCell id="OuGInldzBYDRyF8YYTj3-72" value="&lt;p style=&quot;margin:0px;margin-top:6px;text-align:center;&quot;&gt;&lt;b&gt;Educator Manager&lt;/b&gt;&lt;/p&gt;" style="align=left;overflow=fill;html=1;dropTarget=0;whiteSpace=wrap;" vertex="1" parent="OuGInldzBYDRyF8YYTj3-67">
          <mxGeometry x="16" y="111" width="168" height="44.44" as="geometry" />
        </mxCell>
        <mxCell id="OuGInldzBYDRyF8YYTj3-73" value="" style="shape=component;jettyWidth=8;jettyHeight=4;" vertex="1" parent="OuGInldzBYDRyF8YYTj3-72">
          <mxGeometry x="1" width="20" height="20" relative="1" as="geometry">
            <mxPoint x="-24" y="4" as="offset" />
          </mxGeometry>
        </mxCell>
        <mxCell id="OuGInldzBYDRyF8YYTj3-74" value="" style="endArrow=none;html=1;rounded=0;entryX=0;entryY=0.5;entryDx=0;entryDy=0;exitX=-0.004;exitY=0.772;exitDx=0;exitDy=0;exitPerimeter=0;" edge="1" parent="OuGInldzBYDRyF8YYTj3-67" source="OuGInldzBYDRyF8YYTj3-68" target="OuGInldzBYDRyF8YYTj3-72">
          <mxGeometry width="50" height="50" relative="1" as="geometry">
            <mxPoint x="-93" y="86" as="sourcePoint" />
            <mxPoint x="-43" y="36" as="targetPoint" />
          </mxGeometry>
        </mxCell>
        <mxCell id="OuGInldzBYDRyF8YYTj3-75" value="" style="ellipse;whiteSpace=wrap;html=1;align=center;aspect=fixed;fillColor=none;strokeColor=none;resizable=0;perimeter=centerPerimeter;rotatable=0;allowArrows=0;points=[];outlineConnect=1;" vertex="1" parent="1">
          <mxGeometry x="376" y="180" width="10" height="10" as="geometry" />
        </mxCell>
        <mxCell id="OuGInldzBYDRyF8YYTj3-76" value="" style="whiteSpace=wrap;html=1;aspect=fixed;" vertex="1" parent="1">
          <mxGeometry x="606" y="273.72" width="13" height="13" as="geometry" />
        </mxCell>
        <mxCell id="OuGInldzBYDRyF8YYTj3-77" value="" style="endArrow=none;html=1;rounded=0;exitX=1;exitY=0.5;exitDx=0;exitDy=0;entryX=0;entryY=0.5;entryDx=0;entryDy=0;" edge="1" parent="1" source="OuGInldzBYDRyF8YYTj3-76" target="OuGInldzBYDRyF8YYTj3-70">
          <mxGeometry width="50" height="50" relative="1" as="geometry">
            <mxPoint x="776" y="307" as="sourcePoint" />
            <mxPoint x="638" y="280" as="targetPoint" />
          </mxGeometry>
        </mxCell>
        <mxCell id="OuGInldzBYDRyF8YYTj3-78" value="" style="whiteSpace=wrap;html=1;aspect=fixed;" vertex="1" parent="1">
          <mxGeometry x="606" y="332" width="13" height="13" as="geometry" />
        </mxCell>
        <mxCell id="OuGInldzBYDRyF8YYTj3-84" value="" style="ellipse;whiteSpace=wrap;html=1;align=center;aspect=fixed;fillColor=none;strokeColor=none;resizable=0;perimeter=centerPerimeter;rotatable=0;allowArrows=0;points=[];outlineConnect=1;" vertex="1" parent="1">
          <mxGeometry x="516" y="307" width="10" height="10" as="geometry" />
        </mxCell>
        <mxCell id="OuGInldzBYDRyF8YYTj3-85" value="" style="ellipse;whiteSpace=wrap;html=1;align=center;aspect=fixed;fillColor=none;strokeColor=none;resizable=0;perimeter=centerPerimeter;rotatable=0;allowArrows=0;points=[];outlineConnect=1;" vertex="1" parent="1">
          <mxGeometry x="316" y="251" width="10" height="10" as="geometry" />
        </mxCell>
        <mxCell id="OuGInldzBYDRyF8YYTj3-87" value="" style="ellipse;whiteSpace=wrap;html=1;align=center;aspect=fixed;fillColor=none;strokeColor=none;resizable=0;perimeter=centerPerimeter;rotatable=0;allowArrows=0;points=[];outlineConnect=1;" vertex="1" parent="1">
          <mxGeometry x="557" y="355" width="10" height="10" as="geometry" />
        </mxCell>
        <mxCell id="OuGInldzBYDRyF8YYTj3-89" value="" style="ellipse;whiteSpace=wrap;html=1;align=center;aspect=fixed;fillColor=none;strokeColor=none;resizable=0;perimeter=centerPerimeter;rotatable=0;allowArrows=0;points=[];outlineConnect=1;" vertex="1" parent="1">
          <mxGeometry x="445" y="368" width="10" height="10" as="geometry" />
        </mxCell>
        <mxCell id="OuGInldzBYDRyF8YYTj3-98" value="" style="ellipse;whiteSpace=wrap;html=1;align=center;aspect=fixed;fillColor=none;strokeColor=none;resizable=0;perimeter=centerPerimeter;rotatable=0;allowArrows=0;points=[];outlineConnect=1;" vertex="1" parent="1">
          <mxGeometry x="425" y="242" width="10" height="10" as="geometry" />
        </mxCell>
        <mxCell id="OuGInldzBYDRyF8YYTj3-100" value="" style="ellipse;whiteSpace=wrap;html=1;align=center;aspect=fixed;fillColor=none;strokeColor=none;resizable=0;perimeter=centerPerimeter;rotatable=0;allowArrows=0;points=[];outlineConnect=1;" vertex="1" parent="1">
          <mxGeometry x="425" y="242" width="10" height="10" as="geometry" />
        </mxCell>
        <mxCell id="OuGInldzBYDRyF8YYTj3-101" value="" style="rounded=0;orthogonalLoop=1;jettySize=auto;html=1;endArrow=halfCircle;endFill=0;endSize=6;strokeWidth=1;sketch=0;fontSize=12;curved=1;exitX=0.5;exitY=1;exitDx=0;exitDy=0;entryX=0.08;entryY=0.434;entryDx=0;entryDy=0;entryPerimeter=0;" edge="1" parent="1" source="OuGInldzBYDRyF8YYTj3-25" target="OuGInldzBYDRyF8YYTj3-115">
          <mxGeometry relative="1" as="geometry">
            <mxPoint x="485" y="278" as="sourcePoint" />
            <Array as="points">
              <mxPoint x="405" y="221" />
            </Array>
            <mxPoint x="428" y="268" as="targetPoint" />
          </mxGeometry>
        </mxCell>
        <mxCell id="OuGInldzBYDRyF8YYTj3-102" value="" style="ellipse;whiteSpace=wrap;html=1;align=center;aspect=fixed;fillColor=none;strokeColor=none;resizable=0;perimeter=centerPerimeter;rotatable=0;allowArrows=0;points=[];outlineConnect=1;" vertex="1" parent="1">
          <mxGeometry x="460" y="273" width="10" height="10" as="geometry" />
        </mxCell>
        <mxCell id="OuGInldzBYDRyF8YYTj3-106" value="" style="ellipse;whiteSpace=wrap;html=1;align=center;aspect=fixed;fillColor=none;strokeColor=none;resizable=0;perimeter=centerPerimeter;rotatable=0;allowArrows=0;points=[];outlineConnect=1;" vertex="1" parent="1">
          <mxGeometry x="250" y="365" width="10" height="10" as="geometry" />
        </mxCell>
        <mxCell id="OuGInldzBYDRyF8YYTj3-107" value="" style="rounded=0;orthogonalLoop=1;jettySize=auto;html=1;endArrow=halfCircle;endFill=0;endSize=6;strokeWidth=1;sketch=0;fontSize=12;curved=1;exitX=0.5;exitY=1;exitDx=0;exitDy=0;" edge="1" parent="1" source="OuGInldzBYDRyF8YYTj3-11">
          <mxGeometry relative="1" as="geometry">
            <mxPoint x="360" y="268" as="sourcePoint" />
            <mxPoint x="432" y="270" as="targetPoint" />
          </mxGeometry>
        </mxCell>
        <mxCell id="OuGInldzBYDRyF8YYTj3-108" value="" style="ellipse;whiteSpace=wrap;html=1;align=center;aspect=fixed;fillColor=none;strokeColor=none;resizable=0;perimeter=centerPerimeter;rotatable=0;allowArrows=0;points=[];outlineConnect=1;" vertex="1" parent="1">
          <mxGeometry x="335" y="263" width="10" height="10" as="geometry" />
        </mxCell>
        <mxCell id="OuGInldzBYDRyF8YYTj3-110" value="" style="ellipse;whiteSpace=wrap;html=1;align=center;aspect=fixed;fillColor=none;strokeColor=none;resizable=0;perimeter=centerPerimeter;rotatable=0;allowArrows=0;points=[];outlineConnect=1;" vertex="1" parent="1">
          <mxGeometry x="431" y="332" width="10" height="10" as="geometry" />
        </mxCell>
        <mxCell id="OuGInldzBYDRyF8YYTj3-112" value="" style="ellipse;whiteSpace=wrap;html=1;align=center;aspect=fixed;fillColor=none;strokeColor=none;resizable=0;perimeter=centerPerimeter;rotatable=0;allowArrows=0;points=[];outlineConnect=1;" vertex="1" parent="1">
          <mxGeometry x="441" y="224" width="10" height="10" as="geometry" />
        </mxCell>
        <mxCell id="OuGInldzBYDRyF8YYTj3-114" value="" style="rounded=0;orthogonalLoop=1;jettySize=auto;html=1;endArrow=oval;endFill=0;sketch=0;sourcePerimeterSpacing=0;targetPerimeterSpacing=0;endSize=10;exitX=0.5;exitY=0;exitDx=0;exitDy=0;" edge="1" parent="1" source="OuGInldzBYDRyF8YYTj3-2">
          <mxGeometry relative="1" as="geometry">
            <mxPoint x="403" y="314" as="sourcePoint" />
            <mxPoint x="432" y="269" as="targetPoint" />
          </mxGeometry>
        </mxCell>
        <mxCell id="OuGInldzBYDRyF8YYTj3-115" value="" style="ellipse;whiteSpace=wrap;html=1;align=center;aspect=fixed;fillColor=none;strokeColor=none;resizable=0;perimeter=centerPerimeter;rotatable=0;allowArrows=0;points=[];outlineConnect=1;" vertex="1" parent="1">
          <mxGeometry x="428" y="263.72" width="10" height="10" as="geometry" />
        </mxCell>
        <mxCell id="OuGInldzBYDRyF8YYTj3-116" value="" style="rounded=0;orthogonalLoop=1;jettySize=auto;html=1;endArrow=halfCircle;endFill=0;endSize=6;strokeWidth=1;sketch=0;fontSize=12;curved=1;entryX=0.263;entryY=0.159;entryDx=0;entryDy=0;entryPerimeter=0;exitX=0;exitY=0.5;exitDx=0;exitDy=0;" edge="1" target="OuGInldzBYDRyF8YYTj3-115" parent="1" source="OuGInldzBYDRyF8YYTj3-76">
          <mxGeometry relative="1" as="geometry">
            <mxPoint x="418" y="275" as="sourcePoint" />
            <Array as="points">
              <mxPoint x="525" y="255" />
            </Array>
          </mxGeometry>
        </mxCell>
        <mxCell id="OuGInldzBYDRyF8YYTj3-117" value="" style="ellipse;whiteSpace=wrap;html=1;align=center;aspect=fixed;fillColor=none;strokeColor=none;resizable=0;perimeter=centerPerimeter;rotatable=0;allowArrows=0;points=[];outlineConnect=1;" vertex="1" parent="1">
          <mxGeometry x="393" y="270" width="10" height="10" as="geometry" />
        </mxCell>
        <mxCell id="OuGInldzBYDRyF8YYTj3-118" value="" style="rounded=0;orthogonalLoop=1;jettySize=auto;html=1;endArrow=halfCircle;endFill=0;endSize=6;strokeWidth=1;sketch=0;fontSize=12;curved=1;exitX=0;exitY=0.5;exitDx=0;exitDy=0;" edge="1" target="OuGInldzBYDRyF8YYTj3-115" parent="1" source="OuGInldzBYDRyF8YYTj3-78">
          <mxGeometry relative="1" as="geometry">
            <mxPoint x="418" y="275" as="sourcePoint" />
            <Array as="points">
              <mxPoint x="541" y="272" />
            </Array>
          </mxGeometry>
        </mxCell>
        <mxCell id="OuGInldzBYDRyF8YYTj3-119" value="" style="ellipse;whiteSpace=wrap;html=1;align=center;aspect=fixed;fillColor=none;strokeColor=none;resizable=0;perimeter=centerPerimeter;rotatable=0;allowArrows=0;points=[];outlineConnect=1;" vertex="1" parent="1">
          <mxGeometry x="393" y="270" width="10" height="10" as="geometry" />
        </mxCell>
        <mxCell id="OuGInldzBYDRyF8YYTj3-120" value="" style="rounded=0;orthogonalLoop=1;jettySize=auto;html=1;endArrow=halfCircle;endFill=0;endSize=6;strokeWidth=1;sketch=0;fontSize=12;curved=1;exitX=0.5;exitY=0;exitDx=0;exitDy=0;" edge="1" target="OuGInldzBYDRyF8YYTj3-115" parent="1" source="OuGInldzBYDRyF8YYTj3-47">
          <mxGeometry relative="1" as="geometry">
            <mxPoint x="418" y="389" as="sourcePoint" />
            <Array as="points">
              <mxPoint x="308" y="265" />
            </Array>
          </mxGeometry>
        </mxCell>
        <mxCell id="OuGInldzBYDRyF8YYTj3-121" value="" style="ellipse;whiteSpace=wrap;html=1;align=center;aspect=fixed;fillColor=none;strokeColor=none;resizable=0;perimeter=centerPerimeter;rotatable=0;allowArrows=0;points=[];outlineConnect=1;" vertex="1" parent="1">
          <mxGeometry x="393" y="384" width="10" height="10" as="geometry" />
        </mxCell>
        <mxCell id="OuGInldzBYDRyF8YYTj3-122" value="" style="rounded=0;orthogonalLoop=1;jettySize=auto;html=1;endArrow=halfCircle;endFill=0;endSize=6;strokeWidth=1;sketch=0;fontSize=12;curved=1;exitX=1;exitY=0.5;exitDx=0;exitDy=0;entryX=0.062;entryY=0.862;entryDx=0;entryDy=0;entryPerimeter=0;" edge="1" target="OuGInldzBYDRyF8YYTj3-115" parent="1" source="OuGInldzBYDRyF8YYTj3-62">
          <mxGeometry relative="1" as="geometry">
            <mxPoint x="347" y="249" as="sourcePoint" />
            <mxPoint x="431" y="270" as="targetPoint" />
          </mxGeometry>
        </mxCell>
        <mxCell id="OuGInldzBYDRyF8YYTj3-123" value="" style="ellipse;whiteSpace=wrap;html=1;align=center;aspect=fixed;fillColor=none;strokeColor=none;resizable=0;perimeter=centerPerimeter;rotatable=0;allowArrows=0;points=[];outlineConnect=1;" vertex="1" parent="1">
          <mxGeometry x="322" y="244" width="10" height="10" as="geometry" />
        </mxCell>
      </root>
    </mxGraphModel>
  </diagram>
</mxfile>
